HIERARCHY
ROOT Hips
{
	OFFSET -14.64140 90.27770 -84.91600
	CHANNELS 6 Xposition Yposition Zposition Zrotation Xrotation Yrotation
	JOINT Spine
	{
		OFFSET 0.00000 13.20850 -1.60436
		CHANNELS 3 Zrotation Xrotation Yrotation
		JOINT Spine1
		{
			OFFSET 0.00000 8.61716 0.00000
			CHANNELS 3 Zrotation Xrotation Yrotation
			JOINT Spine2
			{
				OFFSET 0.00000 8.61717 0.00000
				CHANNELS 3 Zrotation Xrotation Yrotation
				JOINT Spine3
				{
					OFFSET 0.00000 8.61717 0.00000
					CHANNELS 3 Zrotation Xrotation Yrotation
					JOINT Neck
					{
						OFFSET 0.00000 11.07920 1.10792
						CHANNELS 3 Zrotation Xrotation Yrotation
						JOINT Neck1
						{
							OFFSET 0.00000 7.08032 0.00000
							CHANNELS 3 Zrotation Xrotation Yrotation
							JOINT Head
							{
								OFFSET 0.00000 7.08031 0.00000
								CHANNELS 3 Zrotation Xrotation Yrotation
								End site
								{
									OFFSET 0.00000 0.00000 0.00000
								}
							}
						}
					}
					JOINT RightShoulder
					{
						OFFSET -0.01000 7.91373 5.19711
						CHANNELS 3 Zrotation Xrotation Yrotation
						JOINT RightArm
						{
							OFFSET -18.41580 0.00000 0.00000
							CHANNELS 3 Zrotation Xrotation Yrotation
							JOINT RightForeArm
							{
								OFFSET -29.11090 0.00000 0.00000
								CHANNELS 3 Zrotation Xrotation Yrotation
								JOINT RightHand
								{
									OFFSET -24.65040 0.00000 0.00000
									CHANNELS 3 Zrotation Xrotation Yrotation
									JOINT RightHandThumb1
									{
										OFFSET -5.35114 -0.85590 3.97906
										CHANNELS 3 Zrotation Xrotation Yrotation
										JOINT RightHandThumb2
										{
											OFFSET -4.52789 0.00000 0.00000
											CHANNELS 3 Zrotation Xrotation Yrotation
											JOINT RightHandThumb3
											{
												OFFSET -2.46976 0.00000 0.00000
												CHANNELS 3 Zrotation Xrotation Yrotation
												End site
												{
													OFFSET 0.00000 0.00000 0.00000
												}
											}
										}
									}
									JOINT RightHandIndex1
									{
										OFFSET -14.26970 0.00000 2.88139
										CHANNELS 3 Zrotation Xrotation Yrotation
										JOINT RightHandIndex2
										{
											OFFSET -5.48836 0.00000 0.00000
											CHANNELS 3 Zrotation Xrotation Yrotation
											JOINT RightHandIndex3
											{
												OFFSET -3.01859 0.00000 0.00000
												CHANNELS 3 Zrotation Xrotation Yrotation
												End site
												{
													OFFSET 0.00000 0.00000 0.00000
												}
											}
										}
									}
									JOINT RightHandMiddle1
									{
										OFFSET -14.26970 0.00000 -0.09147
										CHANNELS 3 Zrotation Xrotation Yrotation
										JOINT RightHandMiddle2
										{
											OFFSET -6.17441 0.00000 0.00000
											CHANNELS 3 Zrotation Xrotation Yrotation
											JOINT RightHandMiddle3
											{
												OFFSET -3.56743 0.00000 0.00000
												CHANNELS 3 Zrotation Xrotation Yrotation
												End site
												{
													OFFSET 0.00000 0.00000 0.00000
												}
											}
										}
									}
									JOINT RightHandRing1
									{
										OFFSET -12.69180 0.00000 -3.06433
										CHANNELS 3 Zrotation Xrotation Yrotation
										JOINT RightHandRing2
										{
											OFFSET -5.62556 0.00000 0.00000
											CHANNELS 3 Zrotation Xrotation Yrotation
											JOINT RightHandRing3
											{
												OFFSET -3.56744 0.00000 0.00000
												CHANNELS 3 Zrotation Xrotation Yrotation
												End site
												{
													OFFSET 0.00000 0.00000 0.00000
												}
											}
										}
									}
									JOINT RightHandPinky1
									{
										OFFSET -11.11390 0.00000 -6.03719
										CHANNELS 3 Zrotation Xrotation Yrotation
										JOINT RightHandPinky2
										{
											OFFSET -4.52789 0.00000 0.00000
											CHANNELS 3 Zrotation Xrotation Yrotation
											JOINT RightHandPinky3
											{
												OFFSET -2.46976 0.00000 0.00000
												CHANNELS 3 Zrotation Xrotation Yrotation
												End site
												{
													OFFSET 0.00000 0.00000 0.00000
												}
											}
										}
									}
								}
							}
						}
					}
					JOINT LeftShoulder
					{
						OFFSET 0.01000 7.91373 5.19711
						CHANNELS 3 Zrotation Xrotation Yrotation
						JOINT LeftArm
						{
							OFFSET 18.41580 0.00000 0.00000
							CHANNELS 3 Zrotation Xrotation Yrotation
							JOINT LeftForeArm
							{
								OFFSET 29.11090 0.00000 0.00000
								CHANNELS 3 Zrotation Xrotation Yrotation
								JOINT LeftHand
								{
									OFFSET 24.65040 0.00000 0.00000
									CHANNELS 3 Zrotation Xrotation Yrotation
									JOINT LeftHandThumb1
									{
										OFFSET 5.35114 -0.85590 3.97906
										CHANNELS 3 Zrotation Xrotation Yrotation
										JOINT LeftHandThumb2
										{
											OFFSET 4.52789 0.00000 0.00000
											CHANNELS 3 Zrotation Xrotation Yrotation
											JOINT LeftHandThumb3
											{
												OFFSET 2.46977 0.00000 0.00000
												CHANNELS 3 Zrotation Xrotation Yrotation
												End site
												{
													OFFSET 0.00000 0.00000 0.00000
												}
											}
										}
									}
									JOINT LeftHandIndex1
									{
										OFFSET 14.26970 0.00000 2.88139
										CHANNELS 3 Zrotation Xrotation Yrotation
										JOINT LeftHandIndex2
										{
											OFFSET 5.48836 0.00000 0.00000
											CHANNELS 3 Zrotation Xrotation Yrotation
											JOINT LeftHandIndex3
											{
												OFFSET 3.01859 0.00000 0.00000
												CHANNELS 3 Zrotation Xrotation Yrotation
												End site
												{
													OFFSET 0.00000 0.00000 0.00000
												}
											}
										}
									}
									JOINT LeftHandMiddle1
									{
										OFFSET 14.26970 0.00000 -0.09147
										CHANNELS 3 Zrotation Xrotation Yrotation
										JOINT LeftHandMiddle2
										{
											OFFSET 6.17440 0.00000 0.00000
											CHANNELS 3 Zrotation Xrotation Yrotation
											JOINT LeftHandMiddle3
											{
												OFFSET 3.56744 0.00000 0.00000
												CHANNELS 3 Zrotation Xrotation Yrotation
												End site
												{
													OFFSET 0.00000 0.00000 0.00000
												}
											}
										}
									}
									JOINT LeftHandRing1
									{
										OFFSET 12.69180 0.00000 -3.06433
										CHANNELS 3 Zrotation Xrotation Yrotation
										JOINT LeftHandRing2
										{
											OFFSET 5.62556 0.00000 0.00000
											CHANNELS 3 Zrotation Xrotation Yrotation
											JOINT LeftHandRing3
											{
												OFFSET 3.56744 0.00000 0.00000
												CHANNELS 3 Zrotation Xrotation Yrotation
												End site
												{
													OFFSET 0.00000 0.00000 0.00000
												}
											}
										}
									}
									JOINT LeftHandPinky1
									{
										OFFSET 11.11390 0.00000 -6.03719
										CHANNELS 3 Zrotation Xrotation Yrotation
										JOINT LeftHandPinky2
										{
											OFFSET 4.52789 0.00000 0.00000
											CHANNELS 3 Zrotation Xrotation Yrotation
											JOINT LeftHandPinky3
											{
												OFFSET 2.46976 0.00000 0.00000
												CHANNELS 3 Zrotation Xrotation Yrotation
												End site
												{
													OFFSET 0.00000 0.00000 0.00000
												}
											}
										}
									}
								}
							}
						}
					}
					JOINT pCube4
					{
						OFFSET 0.00000 10.91090 1.10792
						CHANNELS 3 Zrotation Xrotation Yrotation
						End site
						{
							OFFSET 0.00000 0.00000 0.00000
						}
					}
				}
			}
		}
	}
	JOINT RightUpLeg
	{
		OFFSET -9.98441 0.00000 0.00000
		CHANNELS 3 Zrotation Xrotation Yrotation
		JOINT RightLeg
		{
			OFFSET 0.00000 -42.11790 0.00000
			CHANNELS 3 Zrotation Xrotation Yrotation
			JOINT RightFoot
			{
				OFFSET 0.00000 -45.00020 -0.00001
				CHANNELS 3 Zrotation Xrotation Yrotation
				JOINT RightForeFoot
				{
					OFFSET 0.00000 -3.74820 0.00000
					CHANNELS 3 Zrotation Xrotation Yrotation
					JOINT RightToeBase
					{
						OFFSET 0.00000 0.06325 14.43120
						CHANNELS 3 Zrotation Xrotation Yrotation
						End site
						{
							OFFSET 0.00000 0.00000 0.00000
						}
					}
				}
			}
		}
	}
	JOINT LeftUpLeg
	{
		OFFSET 9.98441 0.00000 0.00000
		CHANNELS 3 Zrotation Xrotation Yrotation
		JOINT LeftLeg
		{
			OFFSET 0.00000 -42.11800 0.00000
			CHANNELS 3 Zrotation Xrotation Yrotation
			JOINT LeftFoot
			{
				OFFSET 0.00000 -45.00070 0.00000
				CHANNELS 3 Zrotation Xrotation Yrotation
				JOINT LeftForeFoot
				{
					OFFSET 0.00000 -3.74824 0.00000
					CHANNELS 3 Zrotation Xrotation Yrotation
					JOINT LeftToeBase
					{
						OFFSET 0.00000 0.06325 14.43110
						CHANNELS 3 Zrotation Xrotation Yrotation
						End site
						{
							OFFSET 0.00000 0.00000 0.00000
						}
					}
				}
			}
		}
	}
}
MOTION
Frames: 4
Frame Time: 0.050000
0.03292787605712837 -0.004254334103351745 -0.026932657712506247 0.0005960294904385807 0.0267145683373734 0.03717289252770844 -2.616049890620726 0.19587671775640225 -0.8875361072963132 -0.8437326128719649 3.5559625767964693 0.37041470312499647 -1.411146585086299 -2.490909458398121 -1.0238722607458342 0.13253406741905457 -0.14725334904948537 -0.8386657154710621 1.1494921856250049 14.894641200864603 -3.0425736347045964 0.3546896225627744 0.6835254215768032 -8.203551878307428 1.3494490053564903 -14.272173490357892 -0.7110686689687611 -8.652514195522476 2.850068848367845 -15.359715125563884 72.49352687708435 -17.70467303669789 21.63637605605554 38.4801531446824 9.11257247681151 97.56929975961336 16.901913522785275 -0.5062406489496584 -2.5086750271781497 4.556768275415193 -0.10393248305616745 -1.60397503142692 -0.037059320594691546 -0.026230906300131664 -56.19637740805097 0.0372315946095701 -0.02467556712054819 -56.24542651524916 -38.7240339324377 0.009344251289928199 0.0004335501000943507 0.02757658732684824 0.014630305886092541 -0.044137618280470435 -0.012940146518132049 -0.04647322524933075 0.021800528001430577 -36.67051065617521 -0.042009084678180944 -0.049593289023059484 0.028807929622080463 0.004124439999420433 -0.013419765022579971 -0.020331840809145497 -0.033077347373649126 0.04129901022165237 -19.734806668090947 0.03862824400104215 0.03349287845008864 0.0284147516016307 -0.033439592808999254 -0.03793815502907658 0.008850806601800989 0.010577687280981154 0.003722232942441796 24.039706441297284 -0.017860304793522505 -0.03302378071647634 28.891809211919394 -0.042027195094078304 0.016303626813389382 28.8826637839017 -0.04661122314402103 0.006425994247855416 7.344384788008031 1.841437182465299 12.754819624431223 -71.9306513929649 9.180614656353155 -13.389185757377914 -50.52006419821414 13.260613262947226 -105.15649428103886 -5.943250041780934 0.9912124863664509 -3.842199495570367 -0.4632598972475463 0.07367121128279872 -8.147677460200706 -0.005344182639704857 0.004582810209879986 44.61077110073514 -0.015200670999598754 0.0027465759198562374 44.54606199992952 12.49013013106142 -0.03177230991169744 0.03196212311299886 0.03824778247219817 0.002719672140679891 0.04867497145160016 0.015023420444441101 0.03736640452833373 -0.03695429494970418 11.111382514855821 -0.025455348368092354 0.011621248693752787 -0.013054328412474149 -0.01589896736103253 -0.045885463630419614 0.029800296566426104 0.0407624752149536 -0.002381706507779748 4.783751511495382 0.006607018285391756 0.02348539987836838 0.02491512904828958 -0.03467665307139899 0.04181994679403413 0.02899351762887495 0.011403119329154792 0.026141209153908072 -5.587679767505752 0.007999003798373261 -0.016399844728220866 -6.754612755108629 0.036326108571610186 0.012238736182859505 -6.692247028565158 -0.037717915425357976 0.00869087707378294 0.015190831262840931 -0.038840893689101555 0.047628519896413896 7.9994845523034535 3.518638899202368 -19.180195054663194 -0.024270277293230995 10.432968347185504 0.018083660821672905 -5.647343481645622 -15.673372950894237 3.2195222112469257 0.03905230968348085 0.041584382515117084 0.023903107003653397 0.0022655726800056603 4.708451098996292 0.034735611235957045 12.4809779959565 -8.227421627340743 6.862648381720907 0.04270920666729035 46.3333700754182 0.048094813703877005 -4.322389829465725 -14.77269027939925 -3.81315920628957 -0.01134753591792966 -0.0284858728036078 -0.04460129981431111 0.0034219504657838945 -10.756555412705712 0.03732268914501762 
0.035391804811043835 -0.025575532220049255 0.024548474940338016 0.004182975879706025 -0.008396299492279874 0.01793320833222892 -2.7658416955522522 0.03233791291002005 -0.7883363962108008 -0.8980299510073428 3.588114818471528 0.3377739996757473 -1.4341436044605922 -2.5495482960471567 -0.883185290474242 0.11036499373269035 -0.1661585029779683 -0.8164048977132541 1.2756284541910852 15.13048013985945 -2.9786923787953286 0.421323879990162 0.7578811087051329 -8.274481748001005 1.4121360775849947 -14.179697886587414 -0.6464400676952132 -9.357869136240717 2.999530061202242 -15.378961232916414 71.3061114575858 -21.024410661800864 25.72733130059314 36.81297909435055 7.817560592284991 98.50559183644833 16.13956370192061 -0.5976149238249838 -1.6297492991993014 4.500801569371699 -0.11736659708139284 -1.554192247854611 -0.031874967737266335 -0.036748013409448416 -56.234972694539415 0.043581628572908815 0.013206801372407817 -56.19729863545162 -38.81433970300965 -0.03964056760839724 -0.0055595767793930155 0.023714595872851952 0.018972399644728865 -0.04918146811050613 0.020576202089258398 0.01217325532610849 -0.005654755663269938 -36.7011361683745 0.0428412604843686 0.0324068223268505 0.0034701696732818326 -0.033737800846869594 0.019122634022843445 -0.02789570864945646 -0.0026702555410087784 -0.040905165149280526 -19.715269436273804 0.02781776444869473 -0.011310931918302531 -0.0006253470124854032 0.029063577290080606 0.018830004244020145 0.023766795570836437 0.018216451953729416 -0.03150877434122077 24.014934640127784 -0.030008155941026415 0.042701310969043414 28.898949407102375 0.01535114529066751 0.04965735971860502 28.834156629486138 -0.027736087196275985 0.03239134085810045 7.565513546933916 1.919159008822909 12.795529578438519 -70.91886008781889 8.931818494173118 -14.473778812318358 -44.72484806058166 11.239589989599093 -103.80969778186494 -3.6280154527672455 1.7638716103901613 -4.908595792865921 -0.4621572554633125 0.11737352339424591 -8.120783746428357 -0.005211403112565093 -0.04760168584343477 44.589391517079285 -0.042619003021027904 -0.021603508866152112 44.60489492413115 12.488739869322725 -0.025749226170414072 0.000153317298286088 -0.02387766770095879 0.028192403662074754 0.03962410684158217 0.021001285070022097 -0.00997076591093491 0.040772276527153074 11.121063201767358 0.014649943751709157 -0.01770696724841927 0.0405261691318802 0.03548442379678938 0.032015327574297335 0.020758081361834834 0.015477860252770688 -0.013252312112510364 4.815066771092741 -0.02616554700690419 0.04238728490555185 -0.012007533503708086 -0.012725403616656195 -0.0415848791543277 0.0348474390694631 0.013182239582068727 0.02345320731073034 -5.578079987914483 0.04939712938824398 0.015854339238057586 -6.737345526658897 -0.013677386410862602 0.024001051658664525 -6.688308900757172 0.03540791312279028 -0.020382960678051128 0.004973819569758676 -0.03335993217986531 -0.023585789586388316 8.021593100676359 3.5196290316597425 -19.197881666121194 -0.02702643086838572 10.41285272209525 0.026823058282240474 -5.608210118029407 -15.653207267561092 3.200217057901609 -0.038228287761992774 0.034320126889085194 0.04731122004243369 -0.013886857340978234 4.747514706521699 0.0060506452587922935 12.469886302463436 -8.226889970307829 6.90097390374345 0.0308151688811441 46.3885132780194 0.016122093650658982 -4.355166912167083 -14.796224610412702 -3.8843538318939337 -0.008649064072003962 -0.0028212142861436668 -0.04147507386892671 0.00891340223115939 -10.716219803448306 -0.0023596039167363544 
-0.023263264676563075 0.017203905117297993 0.02571758983388849 -0.005840665905337706 -0.007654200901373302 -0.000571211930680949 -2.899980123941168 -0.036871674519252884 -0.7564275712727034 -0.8899128891701036 3.5743351627945006 0.35809951326890666 -1.5277527301734273 -2.5323968174422613 -0.7177756537965508 0.026279134884879325 -0.19820137178083488 -0.7746027117366107 1.2749597165702498 15.42490436303526 -2.9807291119281714 0.3737070864887613 0.8018953849625502 -8.371902414908202 1.4625978564088558 -14.073177872812925 -0.6786042712494403 -10.014515222038298 3.201555234119763 -15.289628375104893 69.59419625647094 -23.886448755248335 29.882713427427536 35.265632465777 6.57501617172575 99.09621586618172 15.680922923744712 -0.605923193585378 -0.9158559758312339 4.50430691262533 -0.15257661802381406 -1.5606463632515262 -0.02291993996944618 -0.022071721740800618 -56.28126088873951 -0.014198870216524393 -0.04859200548940222 -56.2539104191584 -38.767496673096375 -0.03904530484143772 -0.01964234426488424 -0.015390221051648912 -0.025804336808727516 0.004398193374369547 -0.03764470939685892 -0.001568421963429022 0.03018212180447859 -36.73140056483654 0.007297458417708642 0.04803174947471142 0.04689610656304555 -0.0327941447291131 -0.04145512147713468 -0.012350874081135152 0.04380863086967019 -0.006830364478073825 -19.76669438608628 0.00472825857013667 0.03641098436754286 0.027248776636076583 0.028962984844523348 0.029638757912107346 -0.04976333527909101 0.01150630795532372 -0.03501714950867409 24.038068126680837 0.01017589594968416 -0.011438430676736472 28.82679314668522 -0.03991640778048382 -0.04393239383500158 28.823765503992494 0.009908397472533899 0.013296736839094391 7.64313974670169 1.8636778130116898 12.702223291608433 -69.69233476499815 8.944583372899363 -15.478835212620137 -39.130358976640366 8.787434898594656 -102.5403094616016 -1.4668619162855505 2.4192816026698347 -5.742244316833859 -0.4525375721416627 0.09968069917797992 -8.130842295650863 0.024158532704304982 -0.04614453851359149 44.53840330645786 -0.02065294952279934 0.04519951294058108 44.56092810146274 12.505716939980115 -0.042953281268409534 -0.029142894758794488 -0.038180345532455695 0.03339948046138679 0.019698324925771272 0.022562895115088303 -0.030398083802161125 -0.014243617393295592 11.080143467683977 0.0045416015191556015 -0.041024128277695825 0.01836532195193972 -0.016957483790926722 -0.040750783012997206 0.013511108510740794 -0.032627893247313904 -0.004415418764537321 4.8182703058804615 -0.048937721134527996 -0.011922065050858683 0.014345073442132157 -0.03651301175645757 -0.018555546189896962 0.011311330505166986 0.02463350983667182 0.002678378235130536 -5.584346871017294 0.023932210723973717 0.030995908617941173 -6.744242843940314 -0.0460005337122627 -0.010096583071748665 -6.733309060649617 0.011414821558959032 0.017043207742327978 -0.0013329305073453998 0.04325060205840371 0.008424155593086749 8.02790891382705 3.4534614145424083 -19.23367515959317 0.021855862729751464 10.43240482895059 -0.006143449167960644 -5.670834804056318 -15.656662327561618 3.1503475332515243 -0.04491716847054826 0.03627344431644355 -0.042920352883243994 -0.002682901781467362 4.673468006067345 0.04203062043005972 12.41218011425914 -8.274674440571381 6.908033954100006 -0.026599656716683004 46.337806387213995 0.0004159216865208804 -4.313577078446795 -14.79204095889213 -3.842584340289734 -0.029397785094863512 -0.02744829881730188 -0.029031276951657272 0.0223211518444779 -10.763713528063164 0.016502662517897764 
-0.01159057837161182 -0.015295955275764706 0.038072387048576586 0.0057778550987506805 -0.026192603103497136 0.03279105333658915 -2.997999486927301 -0.19537647525090532 -0.7687397926797285 -0.8782471996077905 3.5746911351242487 0.3343297773698608 -1.5828728049149392 -2.593154271593918 -0.572751829608758 -0.07327741943189789 -0.16958089786787028 -0.7482852546061252 1.3753046210027806 15.58798522298048 -2.966320088062477 0.43065230042170455 0.9062282378434742 -8.358618373822779 1.433441738561482 -13.951506087138515 -0.6612501209772388 -10.481629224838356 3.2860142593998787 -15.129346265256974 67.43341686823169 -25.093002204830817 34.09809829046627 32.07579598162222 5.053295768859684 99.92593776315888 14.971819165000833 -0.5503408570830591 -0.4227091775815025 4.533066849018847 -0.16189042522336983 -1.5514148094321087 0.005291097821891842 -0.035803029012444414 -56.25012798501887 -0.014218804998739629 -0.022177137363370694 -56.24707724305309 -38.809293107422995 -0.036678353576854186 -0.020486944299643976 0.008616406701568505 -0.048855819167490565 0.02823175864193854 0.003972448858363671 0.0194734363228873 0.017007075977284576 -36.6678104546075 -0.028305671985713078 -0.012408493436276851 -0.04792011804657338 -0.021176999118270742 0.0014443730235611787 0.030070706913095636 -0.00024079425199126418 -0.03723343107285784 -19.76367419765831 0.010042021781113861 -0.008316003690536988 -0.03867377153314814 -0.010730228599435265 -0.043959037063734205 0.02330275665804743 -0.023547168801895276 -0.033059440858613516 24.008011422442088 0.007809097636246044 -0.03155267450404441 28.87534214346426 0.035580478404706295 0.031004139739961176 28.845623667034562 0.029678439801020147 0.04409140859790514 7.837769763242492 1.8591692899130523 12.655929865712617 -68.37974794525233 9.202577375274181 -16.986709691591734 -32.61395904121979 5.719639742528523 -101.44406545368795 0.6808771657880485 2.8745576852255867 -6.268465513584764 -0.4841548593096556 0.08881762910306071 -8.088676468551988 0.048885565190785595 0.022068661979340775 44.56202109586732 -0.009297805523338086 0.0011338942099316125 44.57910981429818 12.458104544819442 -0.022431690580348024 -0.024308859645116716 0.0098975175097127 0.014676341760575274 0.04237685532186421 -0.026396018052989946 -0.047842832296676095 0.007371495523403892 11.114053455165765 0.029136647798695323 0.017507118080472672 0.02007531846456174 -0.025262572219157706 -0.0170952729396088 0.0001182999241800285 0.04651337759787646 -0.003445649493726438 4.784569201922359 0.009506472636220719 0.03008658421362073 -0.017097414800566393 0.015882125460048174 -0.005390170217738119 0.04826819658153064 0.04672912321127255 0.006246431911134221 -5.581943739886936 -0.03680209241571897 0.03098061075203544 -6.759727611752222 -0.026252517211254427 0.044715859186725486 -6.737166086816935 0.009511946536832114 -0.02769304089251241 -0.01061573253212967 0.04765587558722539 0.03351828249628412 8.030305837745825 3.516490482106046 -19.181424713878332 0.0355041701569179 10.416877051407194 0.05113860642176542 -5.60667472342272 -15.670040977776319 3.174743126037287 0.042118907478723815 0.023482214749310483 0.03686097862512723 0.03295379167496576 4.668097447745892 0.009077979474080011 12.460287192391814 -8.283346438016821 6.833563666258337 0.01040064823637795 46.393140029246936 -0.014226832537205171 -4.345572406039613 -14.782011355880924 -3.7992658982212313 -0.01711882945211123 -0.01518891688052144 0.004491485657329303 -0.019116380830983184 -10.748848306777507 0.03675248957124975 
